# xmcd
#
# Track frame offsets: 
#        150
#        15935
#        32515
#        44565
#        57972
#        77072
#        91492
#        112270
#        124865
#        137347
#        153747
#        181150
#
# Disc length: 2671 seconds
#
# Revision: 0
# Processed by: cddbd v1.4b42PL0 Copyright (c) Steve Scherf et al.
# Submitted via: ExactAudioCopy v0.90a11
#
DISCID=970a6d0c
DTITLE=Otis Redding - Try a little tenderness - live in Stockolm 4th J
DTITLE=une 1967 
DYEAR=1900
DGENRE=
TTITLE0=Day tripper
TTITLE1=Fa fa fa fa fa (sad song)
TTITLE2=My girl
TTITLE3=Shake
TTITLE4=I've been loving you too long
TTITLE5=(I can't get no) satisfaction
TTITLE6=Try a little tenderness
TTITLE7=Your one and only man
TTITLE8=Pain in my heart
TTITLE9=These arms of mine
TTITLE10=I can't turn you loose
TTITLE11=A hard day's night
EXTD=
EXTT0=
EXTT1=
EXTT2=
EXTT3=
EXTT4=
EXTT5=
EXTT6=
EXTT7=
EXTT8=
EXTT9=
EXTT10=
EXTT11=
PLAYORDER=
